<svg width="0" height="0" class="hidden">
  <symbol xmlns="http://www.w3.org/2000/svg" viewBox="0 0 21 12" id="chevron_down">
    <path id="chevron_down" d="M1 1L9.05 9.47369C9.8385 10.3037 11.1615 10.3037 11.95 9.47369L20 1" stroke="black" stroke-width="2" stroke-linecap="round"></path>
  </symbol>
  <symbol xmlns="http://www.w3.org/2000/svg" viewBox="0 0 28 32" id="arrow_right">
    <g id="arrow-right">
      <path id="Vector" d="M27.4124 17.4126L17.4124 27.4126C17.0249 27.8063 16.5124 28.0001 15.9999 28.0001C15.4874 28.0001 14.9762 27.8048 14.5862 27.4142C13.8049 26.6329 13.8049 25.3673 14.5862 24.586L21.1749 18.0001H1.9999C0.895525 18.0001 0 17.1063 0 16.0001C0 14.8938 0.895525 14.0001 1.9999 14.0001H21.1749L14.5874 7.4126C13.8061 6.63135 13.8061 5.36572 14.5874 4.58447C15.3686 3.80322 16.6343 3.80322 17.4155 4.58447L27.4155 14.5845C28.1937 15.3688 28.1937 16.6313 27.4124 17.4126Z" fill="#27343C"></path>
    </g>
  </symbol>
  <symbol xmlns="http://www.w3.org/2000/svg" viewBox="0 0 27 27" id="menu">
    <g id="menu">
      <path id="Vector" d="M3.37491 5.06261C3.22583 5.0605 3.07783 5.08805 2.93949 5.14364C2.80115 5.19923 2.67524 5.28176 2.56907 5.38643C2.4629 5.49111 2.3786 5.61584 2.32106 5.75338C2.26352 5.89092 2.23389 6.03852 2.23389 6.18761C2.23389 6.3367 2.26352 6.48431 2.32106 6.62185C2.3786 6.75939 2.4629 6.88412 2.56907 6.98879C2.67524 7.09347 2.80115 7.176 2.93949 7.23159C3.07783 7.28718 3.22583 7.31472 3.37491 7.31261H23.6249C23.774 7.31472 23.922 7.28718 24.0603 7.23159C24.1987 7.176 24.3246 7.09347 24.4307 6.98879C24.5369 6.88412 24.6212 6.75939 24.6788 6.62185C24.7363 6.48431 24.7659 6.3367 24.7659 6.18761C24.7659 6.03852 24.7363 5.89092 24.6788 5.75338C24.6212 5.61584 24.5369 5.49111 24.4307 5.38643C24.3246 5.28176 24.1987 5.19923 24.0603 5.14364C23.922 5.08805 23.774 5.0605 23.6249 5.06261H3.37491ZM3.37491 12.3751C3.22583 12.373 3.07783 12.4005 2.93949 12.4561C2.80115 12.5117 2.67524 12.5943 2.56907 12.6989C2.4629 12.8036 2.3786 12.9283 2.32106 13.0659C2.26352 13.2034 2.23389 13.351 2.23389 13.5001C2.23389 13.6492 2.26352 13.7968 2.32106 13.9343C2.3786 14.0719 2.4629 14.1966 2.56907 14.3013C2.67524 14.406 2.80115 14.4885 2.93949 14.5441C3.07783 14.5997 3.22583 14.6272 3.37491 14.6251H23.6249C23.774 14.6272 23.922 14.5997 24.0603 14.5441C24.1987 14.4885 24.3246 14.406 24.4307 14.3013C24.5369 14.1966 24.6212 14.0719 24.6788 13.9343C24.7363 13.7968 24.7659 13.6492 24.7659 13.5001C24.7659 13.351 24.7363 13.2034 24.6788 13.0659C24.6212 12.9283 24.5369 12.8036 24.4307 12.6989C24.3246 12.5943 24.1987 12.5117 24.0603 12.4561C23.922 12.4005 23.774 12.373 23.6249 12.3751H3.37491ZM3.37491 19.6876C3.22583 19.6855 3.07783 19.713 2.93949 19.7686C2.80115 19.8242 2.67524 19.9068 2.56907 20.0114C2.4629 20.1161 2.3786 20.2408 2.32106 20.3784C2.26352 20.5159 2.23389 20.6635 2.23389 20.8126C2.23389 20.9617 2.26352 21.1093 2.32106 21.2468C2.3786 21.3844 2.4629 21.5091 2.56907 21.6138C2.67524 21.7185 2.80115 21.801 2.93949 21.8566C3.07783 21.9122 3.22583 21.9397 3.37491 21.9376H23.6249C23.774 21.9397 23.922 21.9122 24.0603 21.8566C24.1987 21.801 24.3246 21.7185 24.4307 21.6138C24.5369 21.5091 24.6212 21.3844 24.6788 21.2468C24.7363 21.1093 24.7659 20.9617 24.7659 20.8126C24.7659 20.6635 24.7363 20.5159 24.6788 20.3784C24.6212 20.2408 24.5369 20.1161 24.4307 20.0114C24.3246 19.9068 24.1987 19.8242 24.0603 19.7686C23.922 19.713 23.774 19.6855 23.6249 19.6876H3.37491Z" ></path>
    </g>
  </symbol>
  <symbol xmlns="http://www.w3.org/2000/svg" viewBox="0 0 42 56" id="location_dot">
    <g id="location-dot" clip-path="url(#clip0_80_450)">
      <path id="Vector" d="M18.4078 54.6C12.6984 47.5781 0 30.5594 0 21C0 9.40187 9.40187 0 21 0C32.5938 0 42 9.40187 42 21C42 30.5594 29.2031 47.5781 23.5922 54.6C22.2469 56.2734 19.7531 56.2734 18.4078 54.6ZM21 28C24.8609 28 28 24.8609 28 21C28 17.1391 24.8609 14 21 14C17.1391 14 14 17.1391 14 21C14 24.8609 17.1391 28 21 28Z" fill="#27343C"></path>
    </g>
    <defs>
      <clipPath id="clip0_80_450">
        <rect width="42" height="56" ></rect>
      </clipPath>
    </defs>
  </symbol>
  <symbol xmlns="http://www.w3.org/2000/svg" viewBox="0 0 21 12" id="chevron_up">
    <path id="chevron_up" d="M20 11L11.95 2.52631C11.1615 1.69631 9.8385 1.69631 9.05 2.52632L1 11" stroke="black" stroke-width="2" stroke-linecap="round"></path>
  </symbol>
  <symbol xmlns="http://www.w3.org/2000/svg" viewBox="0 0 34 34" id="steering_wheel">
    <g id="steering_wheel">
      <path id="Vector" d="M17 2.83325C9.18853 2.83325 2.83331 9.18847 2.83331 16.9999C2.83331 24.8114 9.18853 31.1666 17 31.1666C24.8114 31.1666 31.1666 24.8114 31.1666 16.9999C31.1666 9.18847 24.8114 2.83325 17 2.83325ZM17 4.95825C23.663 4.95825 29.0416 10.3369 29.0416 16.9999C29.0416 23.6629 23.663 29.0416 17 29.0416C10.337 29.0416 4.95831 23.6629 4.95831 16.9999C4.95831 10.3369 10.337 4.95825 17 4.95825ZM17 12.0416C12.9164 12.0416 8.73209 13.0894 6.94497 13.5966L6.9422 13.598C6.58024 14.6669 6.37498 15.8085 6.37498 16.9999C6.37498 18.049 6.53297 19.0596 6.8163 20.0173L6.81769 20.0186C12.0239 20.9168 13.5427 24.9474 13.984 27.1836V27.185C14.941 27.4676 15.9516 27.6249 17 27.6249C18.0483 27.6249 19.059 27.4676 20.0159 27.185V27.1836C20.4565 24.9474 21.976 20.9161 27.1823 20.0186L27.1837 20.0173C27.467 19.0596 27.625 18.049 27.625 16.9999C27.625 15.8085 27.4197 14.6669 27.0578 13.598L27.055 13.5966C25.2679 13.0894 21.0835 12.0416 17 12.0416ZM17 15.5833C18.1737 15.5833 19.125 16.5345 19.125 17.7083C19.125 18.882 18.1737 19.8333 17 19.8333C15.8263 19.8333 14.875 18.882 14.875 17.7083C14.875 16.5345 15.8263 15.5833 17 15.5833Z" ></path>
    </g>
  </symbol>
  <symbol xmlns="http://www.w3.org/2000/svg" viewBox="0 0 34 34" id="cardboard_box">
    <g id="cardboard_box">
      <path id="Vector" d="M15.9375 9.20833V4.25H9.84937C8.90092 4.25 8.00842 4.66792 7.40067 5.39679L4.98879 8.29104C4.75929 8.56588 4.58292 8.87754 4.45825 9.20833H15.9375ZM18.0625 9.20833H29.5417C29.4171 8.87754 29.2407 8.56588 29.0112 8.29104L26.5993 5.39679C25.9909 4.66792 25.0991 4.25 24.1506 4.25H18.0625V9.20833ZM4.25 11.3333V25.8542C4.25 28.0025 5.99817 29.75 8.14583 29.75H25.8542C28.0018 29.75 29.75 28.0025 29.75 25.8542V11.3333H4.25ZM20.1875 16.2917H13.8125C13.226 16.2917 12.75 15.8164 12.75 15.2292C12.75 14.642 13.226 14.1667 13.8125 14.1667H20.1875C20.774 14.1667 21.25 14.642 21.25 15.2292C21.25 15.8164 20.774 16.2917 20.1875 16.2917Z" ></path>
    </g>
  </symbol>
  <symbol fill="none" xmlns="http://www.w3.org/2000/svg" viewBox="0 0 20 20" id="arrow_down">
    <g id="arrow_down">
      <path id="Vector 4" d="M1 11L7.87868 17.8787C9.05026 19.0503 10.9497 19.0503 12.1213 17.8787L19 11" stroke="white" stroke-width="2" stroke-linecap="round"></path>
      <path id="Vector 5" d="M10 1L10 11" stroke="white" stroke-width="2" stroke-linecap="round"></path>
    </g>
  </symbol>
  <symbol xmlns="http://www.w3.org/2000/svg" viewBox="0 0 45 44" id="semi_truck">
    <g id="semi_truck">
      <path id="Vector" d="M16.6901 3.59595C14.9269 3.59595 13.3411 4.6571 12.7313 6.24195C12.7313 6.24253 12.7313 6.24312 12.7313 6.2437L12.3669 7.19184H13.2001C11.1106 7.19184 9.314 8.68328 9.0216 10.6701C8.75586 12.4866 8.43749 14.9129 8.43749 16.6311V22.5709C6.76635 23.6141 5.62499 25.3743 5.62499 27.4187V32.3631V32.8126V37.7569C5.62499 38.7503 6.46406 39.5549 7.49999 39.5549H9.37499C10.4109 39.5549 11.25 38.7503 11.25 37.7569V36.8579H33.75V37.7569C33.75 38.7503 34.5891 39.5549 35.625 39.5549H37.5C38.5359 39.5549 39.375 38.7503 39.375 37.7569V32.8126V32.3631V27.4187C39.375 25.3743 38.2336 23.6141 36.5625 22.5709V16.6311C36.5625 14.9129 36.2441 12.4866 35.9784 10.6701C35.6873 8.68266 33.8899 7.19184 31.7999 7.19184H32.6331L32.2687 6.2437C31.6597 4.65738 30.0726 3.59595 28.3099 3.59595H16.6901ZM13.2001 9.88876H13.3466H31.6278H31.7999C32.515 9.88876 33.0944 10.3705 33.1934 11.0458C33.4284 12.6525 33.684 14.7691 33.7317 16.1816H11.2683C11.316 14.7691 11.5716 12.6525 11.8066 11.0458C11.9061 10.3699 12.4864 9.88876 13.2001 9.88876ZM5.13427 11.6674C4.76163 11.673 4.40653 11.8202 4.14698 12.0766C3.88743 12.3331 3.74465 12.6778 3.74999 13.0352V16.6311C3.74736 16.8097 3.78178 16.9871 3.85127 17.153C3.92076 17.3188 4.02392 17.4697 4.15477 17.597C4.28561 17.7242 4.44153 17.8253 4.61345 17.8942C4.78537 17.9632 4.96988 17.9987 5.15624 17.9987C5.34261 17.9987 5.52711 17.9632 5.69904 17.8942C5.87096 17.8253 6.02687 17.7242 6.15772 17.597C6.28856 17.4697 6.39173 17.3188 6.46121 17.153C6.5307 16.9871 6.56513 16.8097 6.56249 16.6311V13.0352C6.56519 12.8547 6.53008 12.6755 6.45924 12.5083C6.3884 12.341 6.28327 12.1892 6.15008 12.0616C6.01689 11.9341 5.85835 11.8334 5.68386 11.7657C5.50937 11.698 5.32248 11.6646 5.13427 11.6674ZM39.8218 11.6674C39.4491 11.673 39.094 11.8202 38.8345 12.0766C38.5749 12.3331 38.4322 12.6778 38.4375 13.0352V16.6311C38.4349 16.8097 38.4693 16.9871 38.5388 17.153C38.6083 17.3188 38.7114 17.4697 38.8423 17.597C38.9731 17.7242 39.129 17.8253 39.301 17.8942C39.4729 17.9632 39.6574 17.9987 39.8438 17.9987C40.0301 17.9987 40.2146 17.9632 40.3865 17.8942C40.5585 17.8253 40.7144 17.7242 40.8452 17.597C40.9761 17.4697 41.0792 17.3188 41.1487 17.153C41.2182 16.9871 41.2526 16.8097 41.25 16.6311V13.0352C41.2527 12.8547 41.2176 12.6755 41.1467 12.5083C41.0759 12.341 40.9708 12.1892 40.8376 12.0616C40.7044 11.9341 40.5459 11.8334 40.3714 11.7657C40.1969 11.698 40.01 11.6646 39.8218 11.6674ZM19.6875 22.4744H25.3125C26.8659 22.4744 28.125 23.6817 28.125 25.1713V31.4641H16.875V25.1713C16.875 23.6817 18.1341 22.4744 19.6875 22.4744ZM12.6562 26.9692C13.4334 26.9692 14.0625 27.5724 14.0625 28.3177V30.1156C14.0625 30.8609 13.4334 31.4641 12.6562 31.4641C11.8791 31.4641 11.25 30.8609 11.25 30.1156V28.3177C11.25 27.5724 11.8791 26.9692 12.6562 26.9692ZM32.3437 26.9692C33.1209 26.9692 33.75 27.5724 33.75 28.3177V30.1156C33.75 30.8609 33.1209 31.4641 32.3437 31.4641C31.5666 31.4641 30.9375 30.8609 30.9375 30.1156V28.3177C30.9375 27.5724 31.5666 26.9692 32.3437 26.9692Z" ></path>
    </g>
  </symbol>
  <symbol xmlns="http://www.w3.org/2000/svg" viewBox="0 0 37 36" id="internet">
    <g id="internet">
      <path id="Vector" d="M11.0537 22.5H3.79248C3.32998 21.075 3.08331 19.5675 3.08331 18C3.08331 16.4325 3.32998 14.925 3.79248 13.5H11.0537C10.8764 14.9775 10.7916 16.5 10.7916 18C10.7916 19.5 10.8764 21.0225 11.0537 22.5ZM11.3852 24.75C11.9248 27.75 12.8421 30.465 14.1062 32.3775C10.0054 31.2 6.62144 28.4025 4.7329 24.75H11.3852ZM11.3852 11.25H4.7329C6.62144 7.5975 10.0054 4.8 14.1062 3.6225C12.8421 5.535 11.9248 8.25 11.3852 11.25ZM21.8069 24.75V29.5275C20.8819 31.605 19.7564 32.8725 18.6696 32.9925C18.6156 33 18.5539 33 18.5 33C18.446 33 18.3844 33 18.3304 32.9925C16.5575 32.7975 14.6921 29.5725 13.7362 24.75H21.8069ZM13.7362 11.25C14.6921 6.4275 16.5575 3.2025 18.3304 3.0075C18.3844 3 18.446 3 18.5 3C18.5539 3 18.6156 3 18.6696 3.0075C20.4425 3.2025 22.3079 6.4275 23.2637 11.25H13.7362ZM23.7802 15.12C23.5721 15.15 23.3639 15.2175 23.1712 15.3C22.3387 15.6825 21.8069 16.4925 21.8069 17.37V22.5H13.3739C13.2044 21.09 13.1041 19.5825 13.1041 18C13.1041 16.4175 13.2044 14.91 13.3739 13.5H23.626C23.6877 14.025 23.7416 14.565 23.7802 15.12ZM25.6148 11.25C25.0752 8.25 24.1579 5.535 22.8937 3.6225C26.9946 4.8 30.3785 7.5975 32.2671 11.25H25.6148ZM33.9166 18C33.9166 19.3725 33.7239 20.7 33.3694 21.9675L26.1621 16.035C26.1158 15.18 26.0464 14.3325 25.9462 13.5H33.2075C33.67 14.925 33.9166 16.4325 33.9166 18ZM35.3427 26.235C35.2271 26.5425 34.9264 26.745 34.5873 26.745H30.7023L33.098 31.875C33.4518 32.6318 33.105 33.5243 32.3249 33.864L31.5625 34.1963C30.7878 34.5338 29.879 34.1993 29.5283 33.4478L27.1564 28.365L24.7669 31.155C24.551 31.41 24.1964 31.5 23.8804 31.3875C23.5644 31.275 23.3485 30.9825 23.3485 30.6525V17.37C23.3485 17.07 23.5335 16.7925 23.811 16.665C24.0962 16.5375 24.4354 16.5825 24.6744 16.7775L35.1114 25.3725C35.3658 25.5825 35.4583 25.9275 35.3427 26.235Z" ></path>
    </g>
  </symbol>
  <symbol xmlns="http://www.w3.org/2000/svg" viewBox="0 0 45 43" id="dollar_coin">
    <g id="dollar_coin">
      <path id="Vector" d="M22.5 6.27075C13.7119 6.27075 6.5625 13.1024 6.5625 21.4999C6.5625 29.8975 13.7119 36.7291 22.5 36.7291C31.2881 36.7291 38.4375 29.8975 38.4375 21.4999C38.4375 13.1024 31.2881 6.27075 22.5 6.27075ZM23.7891 28.8905V30.1223C23.7891 30.8022 23.2125 31.3541 22.5 31.3541C21.7875 31.3541 21.2109 30.8022 21.2109 30.1223V28.8861C19.6078 28.8744 18.1406 28.3145 17.0766 27.2978C16.5731 26.8167 16.5731 26.0373 17.0766 25.5562C17.58 25.0752 18.3956 25.0752 18.8991 25.5562C19.3144 25.9531 20.0625 26.427 21.2597 26.427H23.7891C24.855 26.427 25.7222 25.5984 25.7222 24.5798C25.7222 23.5612 24.855 22.7326 23.7891 22.7326H21.5334C19.0462 22.7326 17.0222 20.7985 17.0222 18.4218C17.0222 16.15 18.8766 14.3028 21.2119 14.1415V12.8784C21.2109 12.1976 21.7875 11.6458 22.5 11.6458C23.2125 11.6458 23.7891 12.1976 23.7891 12.8775V14.1272C25.7784 14.224 27.0487 15.3115 27.45 15.9045C27.8362 16.4761 27.6637 17.2384 27.0656 17.6075C26.4666 17.9739 25.6687 17.8118 25.2844 17.2402C25.2806 17.2402 24.7266 16.5728 23.5153 16.5728H21.5325C20.4666 16.5728 19.5994 17.4015 19.5994 18.42C19.5994 19.4386 20.4666 20.2673 21.5325 20.2673H23.7881C26.2753 20.2673 28.2994 22.2014 28.2994 24.578C28.2994 26.9546 26.2762 28.8905 23.7891 28.8905Z" ></path>
    </g>
  </symbol>
  <symbol xmlns="http://www.w3.org/2000/svg" viewBox="0 0 45 43" id="two_tickets">
    <g id="two_tickets">
      <path id="Vector" d="M40.1522 10.75L39.1791 6.79938C38.9784 5.98418 38.4581 5.2917 37.7128 4.85095C36.9666 4.4102 36.0853 4.27313 35.2341 4.46484L7.27875 10.75H40.1522ZM38.9062 37.625H6.09375C4.28438 37.625 2.8125 36.2186 2.8125 34.4896V29.9836C2.8125 29.5975 2.98688 29.2302 3.28969 28.9748C3.5925 28.7195 3.99563 28.5986 4.39781 28.6506C4.49063 28.6622 4.58906 28.6667 4.6875 28.6667C6.75563 28.6667 8.4375 27.0596 8.4375 25.0833C8.4375 23.1071 6.75563 21.5 4.6875 21.5C4.58812 21.5 4.48687 21.5054 4.39406 21.5161C3.99094 21.5645 3.59156 21.4454 3.28781 21.1901C2.98594 20.9356 2.8125 20.5683 2.8125 20.1831V15.6771C2.8125 13.9481 4.28438 12.5417 6.09375 12.5417H38.9062C40.7156 12.5417 42.1875 13.9481 42.1875 15.6771V20.1831C42.1875 20.5683 42.0141 20.9356 41.7122 21.1909C41.4094 21.4463 41.0128 21.5645 40.6059 21.517C40.5131 21.5054 40.4119 21.5 40.3125 21.5C38.2444 21.5 36.5625 23.1071 36.5625 25.0833C36.5625 27.0596 38.2444 28.6667 40.3125 28.6667C40.4109 28.6667 40.5094 28.6622 40.6031 28.6506C41.0025 28.5986 41.4066 28.7195 41.7113 28.9748C42.0131 29.2293 42.1875 29.5975 42.1875 29.9836V34.4896C42.1875 36.2186 40.7156 37.625 38.9062 37.625Z" ></path>
    </g>
  </symbol>
  <symbol xmlns="http://www.w3.org/2000/svg" viewBox="0 0 43 43" id="shield_check">
    <g id="shield_check">
      <path id="Vector" d="M21.5437 1.79167C21.1972 1.78086 20.8599 1.90435 20.6024 2.13636C20.6024 2.13636 13.8766 8.0625 5.82288 8.0625C5.4665 8.06254 5.12474 8.20412 4.87274 8.45612C4.62075 8.70811 4.47916 9.04988 4.47913 9.40625V20.389C4.47913 26.3714 7.24673 36.2153 20.9786 41.9992C21.1436 42.0687 21.3209 42.1045 21.5 42.1045C21.679 42.1045 21.8563 42.0687 22.0214 41.9992C35.7532 36.2153 38.5208 26.3714 38.5208 20.389V9.40625C38.5208 9.04988 38.3792 8.70811 38.1272 8.45612C37.8752 8.20412 37.5334 8.06254 37.177 8.0625C29.1233 8.0625 22.3975 2.13636 22.3975 2.13636C22.1624 1.9245 21.86 1.80243 21.5437 1.79167ZM28.217 16.125C28.5607 16.125 28.9046 16.2562 29.167 16.5187C29.692 17.0427 29.692 17.8948 29.167 18.4188L20.2087 27.3772C19.948 27.6396 19.6044 27.7708 19.2604 27.7708C18.9164 27.7708 18.5728 27.6396 18.3103 27.3772L13.8311 22.898C13.3062 22.3739 13.3062 21.5219 13.8311 20.9978C14.3561 20.4729 15.2063 20.4729 15.7313 20.9978L19.2586 24.5269L27.2669 16.5187C27.5294 16.2562 27.8732 16.125 28.217 16.125Z" ></path>
    </g>
  </symbol>
  <symbol xmlns="http://www.w3.org/2000/svg" viewBox="0 0 46 41" id="container_truck">
    <g id="container_truck">
      <path id="Vector" d="M3.33169 5.96085C2.95077 5.96615 2.58778 6.106 2.32246 6.34968C2.05714 6.59335 1.91119 6.92093 1.91665 7.26045V9.82295V21.3542H25.875V7.68753V7.26045C25.8777 7.08896 25.8419 6.91873 25.7694 6.75983C25.697 6.60094 25.5896 6.45661 25.4534 6.33542C25.3173 6.21422 25.1552 6.11862 24.9768 6.05428C24.7985 5.98994 24.6074 5.95817 24.415 5.96085C24.0341 5.96615 23.6711 6.106 23.4058 6.34968C23.1405 6.59335 22.9945 6.92093 23 7.26045V7.68753H4.79165V7.26045C4.79441 7.08896 4.75852 6.91873 4.6861 6.75983C4.61369 6.60094 4.50622 6.45661 4.37007 6.33542C4.23392 6.21422 4.07186 6.11862 3.8935 6.05428C3.71513 5.98994 3.52409 5.95817 3.33169 5.96085ZM8.14582 10.25C8.93932 10.25 9.58332 10.824 9.58332 11.5313V17.5105C9.58332 18.2177 8.93932 18.7917 8.14582 18.7917C7.35232 18.7917 6.70832 18.2177 6.70832 17.5105V11.5313C6.70832 10.824 7.35232 10.25 8.14582 10.25ZM13.8958 10.25C14.6893 10.25 15.3333 10.824 15.3333 11.5313V17.5105C15.3333 18.2177 14.6893 18.7917 13.8958 18.7917C13.1023 18.7917 12.4583 18.2177 12.4583 17.5105V11.5313C12.4583 10.824 13.1023 10.25 13.8958 10.25ZM19.6458 10.25C20.4393 10.25 21.0833 10.824 21.0833 11.5313V17.5105C21.0833 18.2177 20.4393 18.7917 19.6458 18.7917C18.8523 18.7917 18.2083 18.2177 18.2083 17.5105V11.5313C18.2083 10.824 18.8523 10.25 19.6458 10.25ZM30.6667 13.6667C29.6077 13.6667 28.75 14.4312 28.75 15.375V31.1771C28.75 33.7564 31.127 35.875 34.0208 35.875C36.4164 35.875 38.4538 34.4216 39.0858 32.4584H39.7708C42.1523 32.4584 44.0833 30.7372 44.0833 28.6146V23.1793C44.0833 22.6412 43.9562 22.1089 43.7108 21.6178L40.8845 15.9506C40.1926 14.5617 38.6484 13.6667 36.9445 13.6667H30.6667ZM32.5833 16.2292H36.9445C37.5128 16.2292 38.0266 16.527 38.2566 16.9899L39.8326 20.153C40.1143 20.7176 39.6514 21.3542 38.9585 21.3542H32.5833C32.0543 21.3542 31.625 20.9715 31.625 20.5V17.0834C31.625 16.6119 32.0543 16.2292 32.5833 16.2292ZM1.91665 23.9167V28.6146C1.91665 30.7372 3.84769 32.4584 6.22915 32.4584H6.91421C7.54613 34.4216 9.58357 35.875 11.9792 35.875C14.3747 35.875 16.4122 34.4216 17.0441 32.4584H24.4375C25.231 32.4584 25.875 31.8844 25.875 31.1771V23.9167H1.91665ZM11.9792 29.0417C13.3174 29.0417 14.375 29.9844 14.375 31.1771C14.375 32.3699 13.3174 33.3125 11.9792 33.3125C10.6409 33.3125 9.58332 32.3699 9.58332 31.1771C9.58332 29.9844 10.6409 29.0417 11.9792 29.0417ZM34.0208 29.0417C35.359 29.0417 36.4167 29.9844 36.4167 31.1771C36.4167 32.3699 35.359 33.3125 34.0208 33.3125C32.6826 33.3125 31.625 32.3699 31.625 31.1771C31.625 29.9844 32.6826 29.0417 34.0208 29.0417Z" ></path>
    </g>
  </symbol>
</svg>